<?xml version="1.0" standalone="no"?>
<!DOCTYPE svg PUBLIC "-//W3C//DTD SVG 20010904//EN"
 "http://www.w3.org/TR/2001/REC-SVG-20010904/DTD/svg10.dtd">
<svg version="1.0" xmlns="http://www.w3.org/2000/svg"
 width="370.000000pt" height="82.000000pt" viewBox="0 0 370.000000 82.000000"
 preserveAspectRatio="xMidYMid meet">

<g transform="translate(0.000000,82.000000) scale(0.100000,-0.100000)"
fill="#000000" stroke="none">
<path d="M3447 730 c-48 -9 -85 -36 -108 -80 -26 -48 -27 -235 -2 -287 24 -52
66 -74 138 -73 33 1 66 1 73 1 17 -1 16 -76 -2 -90 -20 -17 -82 -22 -143 -13
-47 8 -52 7 -57 -12 -10 -37 -6 -83 8 -95 7 -6 53 -14 102 -17 137 -9 208 25
235 114 7 24 10 110 7 243 -3 204 -3 206 -30 246 -41 62 -117 83 -221 63z
m101 -122 c8 -8 12 -46 12 -105 0 -90 -1 -93 -25 -99 -40 -10 -72 3 -79 31
-12 45 -4 155 11 171 18 17 65 18 81 2z"/>
<path d="M115 723 c-35 -9 -87 -54 -101 -89 -11 -25 -14 -87 -14 -247 0 -206
1 -215 23 -248 37 -56 86 -74 199 -74 53 0 99 2 101 5 3 3 7 30 8 60 l4 55
-81 0 c-118 0 -114 -8 -114 211 0 224 -3 218 112 212 l78 -5 0 58 c0 43 -4 58
-16 63 -18 7 -169 6 -199 -1z"/>
<path d="M1305 688 c7 -45 27 -157 45 -243 5 -27 23 -119 40 -204 17 -85 33
-158 36 -163 5 -8 194 -12 194 -3 0 2 14 76 31 162 17 87 41 212 54 278 13 66
26 141 30 168 l7 47 -65 0 c-36 0 -68 -4 -71 -9 -9 -13 -35 -192 -71 -471 -2
-19 -5 -37 -5 -40 -2 -19 -19 35 -25 80 -6 53 -35 235 -59 370 l-11 65 -68 3
-69 3 7 -43z"/>
<path d="M1845 717 c-3 -7 -4 -154 -3 -327 l3 -315 68 -3 67 -3 0 331 0 330
-65 0 c-44 0 -67 -4 -70 -13z"/>
<path d="M2128 724 c-5 -4 -8 -153 -8 -331 l0 -323 148 0 c167 0 201 11 228
75 22 53 20 476 -2 515 -33 54 -65 65 -219 68 -77 2 -143 0 -147 -4z m240
-116 c17 -17 17 -399 0 -416 -7 -7 -34 -12 -60 -12 l-48 0 0 220 0 220 48 0
c26 0 53 -5 60 -12z"/>
<path d="M3013 683 l-63 -46 0 -69 c0 -37 2 -68 6 -68 3 0 22 11 42 25 20 14
40 25 44 25 5 0 8 -102 8 -227 0 -126 4 -234 9 -241 5 -9 27 -12 72 -10 l64 3
3 285 c1 157 0 304 -3 328 l-6 42 -57 0 c-52 0 -62 -4 -119 -47z"/>
<path d="M2639 415 c-1 -14 -1 -35 -2 -48 -2 -43 9 -48 108 -46 51 1 97 4 103
8 5 3 9 29 8 56 l-1 50 -107 3 -108 3 -1 -26z"/>
</g>
</svg>
